<svg width="86" height="30" viewBox="0 0 86 30" fill="none" xmlns="http://www.w3.org/2000/svg">
<path d="M6.94081 11.0895C6.44862 11.0895 6.01076 11.0096 5.62724 10.8498C5.24585 10.6879 4.94649 10.4673 4.72916 10.1882C4.51183 9.90909 4.40316 9.59268 4.40316 9.23899C4.40316 8.96626 4.46495 8.71591 4.58853 8.48793C4.71424 8.25781 4.8847 8.06712 5.0999 7.91584C5.3151 7.76243 5.55586 7.66442 5.8222 7.6218V7.57706C5.47277 7.50675 5.18939 7.33736 4.97206 7.06889C4.75473 6.7983 4.64606 6.48402 4.64606 6.12607C4.64606 5.78729 4.74514 5.4858 4.94329 5.22159C5.14145 4.95526 5.41311 4.74645 5.75828 4.59517C6.10558 4.44176 6.49976 4.36506 6.94081 4.36506C7.38186 4.36506 7.77497 4.44176 8.12014 4.59517C8.46744 4.74858 8.74017 4.95845 8.93832 5.22479C9.13647 5.48899 9.23662 5.78942 9.23875 6.12607C9.23662 6.48615 9.12582 6.80043 8.90636 7.06889C8.6869 7.33736 8.40565 7.50675 8.06261 7.57706V7.6218C8.32469 7.66442 8.56226 7.76243 8.77532 7.91584C8.99052 8.06712 9.16098 8.25781 9.28669 8.48793C9.41453 8.71591 9.47951 8.96626 9.48165 9.23899C9.47951 9.59268 9.36978 9.90909 9.15245 10.1882C8.93513 10.4673 8.6347 10.6879 8.25118 10.8498C7.86978 11.0096 7.43299 11.0895 6.94081 11.0895ZM6.94081 10.0732C7.16027 10.0732 7.35203 10.0337 7.51609 9.9549C7.68015 9.87393 7.80799 9.76314 7.89961 9.62251C7.99336 9.47976 8.04024 9.3157 8.04024 9.13033C8.04024 8.9407 7.9923 8.77344 7.89642 8.62855C7.80054 8.48153 7.67057 8.36648 7.5065 8.28338C7.34244 8.19815 7.15388 8.15554 6.94081 8.15554C6.72987 8.15554 6.5413 8.19815 6.37511 8.28338C6.20892 8.36648 6.07788 8.48153 5.982 8.62855C5.88825 8.77344 5.84138 8.9407 5.84138 9.13033C5.84138 9.3157 5.88718 9.47976 5.9788 9.62251C6.07042 9.76314 6.19933 9.87393 6.36552 9.9549C6.53172 10.0337 6.72348 10.0732 6.94081 10.0732ZM6.94081 7.14879C7.12405 7.14879 7.28704 7.11151 7.4298 7.03693C7.57255 6.96236 7.68441 6.85902 7.76538 6.72692C7.84635 6.59482 7.88683 6.44247 7.88683 6.26989C7.88683 6.09943 7.84635 5.95028 7.76538 5.82244C7.68441 5.69247 7.57362 5.59126 7.43299 5.51882C7.29237 5.44425 7.12831 5.40696 6.94081 5.40696C6.75544 5.40696 6.59138 5.44425 6.44862 5.51882C6.30586 5.59126 6.194 5.69247 6.11304 5.82244C6.0342 5.95028 5.99478 6.09943 5.99478 6.26989C5.99478 6.44247 6.03527 6.59482 6.11623 6.72692C6.1972 6.85902 6.30906 6.96236 6.45182 7.03693C6.59457 7.11151 6.75757 7.14879 6.94081 7.14879ZM12.8455 7.72727C12.8455 6.93466 12.9509 6.2049 13.1619 5.538C13.3749 4.87109 13.6999 4.2532 14.1367 3.6843H15.4374C15.2712 3.89524 15.1168 4.15305 14.974 4.45774C14.8313 4.7603 14.7066 5.09268 14.6001 5.4549C14.4935 5.81712 14.4104 6.19212 14.3508 6.5799C14.2911 6.96555 14.2613 7.34801 14.2613 7.72727C14.2613 8.23224 14.3124 8.74254 14.4147 9.25817C14.5191 9.77166 14.6597 10.2489 14.8366 10.69C15.0156 11.131 15.2158 11.4922 15.4374 11.7734H14.1367C13.6999 11.2045 13.3749 10.5866 13.1619 9.91974C12.9509 9.25284 12.8455 8.52202 12.8455 7.72727ZM18.6566 11.0895C18.1644 11.0895 17.7266 11.0096 17.3431 10.8498C16.9617 10.6879 16.6623 10.4673 16.445 10.1882C16.2277 9.90909 16.119 9.59268 16.119 9.23899C16.119 8.96626 16.1808 8.71591 16.3044 8.48793C16.4301 8.25781 16.6005 8.06712 16.8157 7.91584C17.0309 7.76243 17.2717 7.66442 17.538 7.6218V7.57706C17.1886 7.50675 16.9052 7.33736 16.6879 7.06889C16.4705 6.7983 16.3619 6.48402 16.3619 6.12607C16.3619 5.78729 16.461 5.4858 16.6591 5.22159C16.8573 4.95526 17.1289 4.74645 17.4741 4.59517C17.8214 4.44176 18.2156 4.36506 18.6566 4.36506C19.0977 4.36506 19.4908 4.44176 19.836 4.59517C20.1833 4.74858 20.456 4.95845 20.6541 5.22479C20.8523 5.48899 20.9524 5.78942 20.9546 6.12607C20.9524 6.48615 20.8416 6.80043 20.6222 7.06889C20.4027 7.33736 20.1215 7.50675 19.7784 7.57706V7.6218C20.0405 7.66442 20.2781 7.76243 20.4911 7.91584C20.7063 8.06712 20.8768 8.25781 21.0025 8.48793C21.1303 8.71591 21.1953 8.96626 21.1975 9.23899C21.1953 9.59268 21.0856 9.90909 20.8683 10.1882C20.6509 10.4673 20.3505 10.6879 19.967 10.8498C19.5856 11.0096 19.1488 11.0895 18.6566 11.0895ZM18.6566 10.0732C18.8761 10.0732 19.0678 10.0337 19.2319 9.9549C19.396 9.87393 19.5238 9.76314 19.6154 9.62251C19.7092 9.47976 19.7561 9.3157 19.7561 9.13033C19.7561 8.9407 19.7081 8.77344 19.6122 8.62855C19.5164 8.48153 19.3864 8.36648 19.2223 8.28338C19.0583 8.19815 18.8697 8.15554 18.6566 8.15554C18.4457 8.15554 18.2571 8.19815 18.0909 8.28338C17.9247 8.36648 17.7937 8.48153 17.6978 8.62855C17.6041 8.77344 17.5572 8.9407 17.5572 9.13033C17.5572 9.3157 17.603 9.47976 17.6946 9.62251C17.7862 9.76314 17.9152 9.87393 18.0813 9.9549C18.2475 10.0337 18.4393 10.0732 18.6566 10.0732ZM18.6566 7.14879C18.8399 7.14879 19.0029 7.11151 19.1456 7.03693C19.2884 6.96236 19.4002 6.85902 19.4812 6.72692C19.5622 6.59482 19.6027 6.44247 19.6027 6.26989C19.6027 6.09943 19.5622 5.95028 19.4812 5.82244C19.4002 5.69247 19.2894 5.59126 19.1488 5.51882C19.0082 5.44425 18.8441 5.40696 18.6566 5.40696C18.4713 5.40696 18.3072 5.44425 18.1644 5.51882C18.0217 5.59126 17.9098 5.69247 17.8289 5.82244C17.75 5.95028 17.7106 6.09943 17.7106 6.26989C17.7106 6.44247 17.7511 6.59482 17.8321 6.72692C17.913 6.85902 18.0249 6.96236 18.1676 7.03693C18.3104 7.11151 18.4734 7.14879 18.6566 7.14879ZM25.0127 4.45455V11H23.6288V5.76811H23.5905L22.0916 6.70774V5.48047L23.7119 4.45455H25.0127ZM26.5684 11V10.0028L28.8983 7.84553C29.0964 7.65376 29.2626 7.48118 29.3969 7.32777C29.5332 7.17436 29.6366 7.02415 29.7069 6.87713C29.7772 6.72798 29.8123 6.56712 29.8123 6.39453C29.8123 6.20277 29.7687 6.03764 29.6813 5.89915C29.5939 5.75852 29.4746 5.65092 29.3234 5.57635C29.1721 5.49964 29.0006 5.46129 28.8088 5.46129C28.6085 5.46129 28.4338 5.50178 28.2846 5.58274C28.1355 5.66371 28.0204 5.77983 27.9395 5.93111C27.8585 6.08239 27.818 6.26243 27.818 6.47124H26.5045C26.5045 6.04297 26.6014 5.67116 26.7953 5.35582C26.9892 5.04048 27.2609 4.79652 27.6103 4.62393C27.9597 4.45135 28.3624 4.36506 28.8184 4.36506C29.2871 4.36506 29.6952 4.44815 30.0425 4.61435C30.3919 4.77841 30.6636 5.00639 30.8574 5.2983C31.0513 5.5902 31.1483 5.92472 31.1483 6.30185C31.1483 6.54901 31.0993 6.79297 31.0013 7.03374C30.9054 7.2745 30.7339 7.5419 30.4867 7.83594C30.2395 8.12784 29.8912 8.47834 29.4416 8.88743L28.486 9.82386V9.86861H31.2346V11H26.5684ZM34.5449 7.72727C34.5449 8.52202 34.4383 9.25284 34.2253 9.91974C34.0143 10.5866 33.6905 11.2045 33.2537 11.7734H31.9529C32.1191 11.5625 32.2735 11.3047 32.4163 11C32.5591 10.6953 32.6837 10.3629 32.7902 10.0028C32.8968 9.64062 32.9799 9.26562 33.0395 8.87784C33.0992 8.49006 33.129 8.10653 33.129 7.72727C33.129 7.2223 33.0768 6.71307 32.9724 6.19957C32.8701 5.68395 32.7295 5.20668 32.5505 4.76776C32.3737 4.3267 32.1745 3.96555 31.9529 3.6843H33.2537C33.6905 4.2532 34.0143 4.87109 34.2253 5.538C34.4383 6.2049 34.5449 6.93466 34.5449 7.72727ZM40.515 11.0895C40.1784 11.0874 39.8534 11.0309 39.5402 10.9201C39.2292 10.8093 38.95 10.6293 38.7029 10.38C38.4557 10.1307 38.2597 9.80043 38.1148 9.3892C37.9721 8.97798 37.9007 8.47301 37.9007 7.87429C37.9028 7.32457 37.9657 6.83345 38.0892 6.40092C38.215 5.96626 38.3939 5.59766 38.6262 5.2951C38.8606 4.99254 39.1407 4.76243 39.4667 4.60476C39.7927 4.44496 40.1581 4.36506 40.563 4.36506C40.9998 4.36506 41.3854 4.45028 41.7199 4.62074C42.0544 4.78906 42.3229 5.01811 42.5253 5.30788C42.7299 5.59766 42.8534 5.92259 42.8961 6.28267H41.5314C41.4781 6.05469 41.3662 5.87571 41.1958 5.74574C41.0253 5.61577 40.8144 5.55078 40.563 5.55078C40.1368 5.55078 39.813 5.73615 39.5914 6.10689C39.3719 6.47763 39.2601 6.98153 39.2558 7.61861H39.3005C39.3985 7.42472 39.5307 7.25959 39.6968 7.12322C39.8652 6.98473 40.0559 6.87926 40.2689 6.80682C40.4841 6.73224 40.711 6.69496 40.9497 6.69496C41.3375 6.69496 41.6826 6.78658 41.9852 6.96982C42.2878 7.15092 42.5264 7.40021 42.7011 7.71768C42.8758 8.03516 42.9632 8.39844 42.9632 8.80753C42.9632 9.25071 42.8598 9.64489 42.6532 9.99006C42.4486 10.3352 42.162 10.6058 41.7934 10.8018C41.427 10.9957 41.0008 11.0916 40.515 11.0895ZM40.5086 10.0028C40.7217 10.0028 40.9124 9.9517 41.0807 9.84943C41.249 9.74716 41.3811 9.60866 41.477 9.43395C41.5729 9.25923 41.6208 9.06321 41.6208 8.84588C41.6208 8.62855 41.5729 8.43359 41.477 8.26101C41.3833 8.08842 41.2533 7.95099 41.0871 7.84872C40.9209 7.74645 40.7313 7.69531 40.5182 7.69531C40.3584 7.69531 40.2103 7.72514 40.074 7.7848C39.9397 7.84446 39.8215 7.92756 39.7192 8.03409C39.6191 8.14062 39.5402 8.2642 39.4827 8.40483C39.4252 8.54332 39.3964 8.69141 39.3964 8.84908C39.3964 9.06001 39.4444 9.25284 39.5402 9.42756C39.6383 9.60227 39.7704 9.74183 39.9365 9.84624C40.1049 9.95064 40.2956 10.0028 40.5086 10.0028ZM46.5108 11.1438C45.961 11.1417 45.488 11.0064 45.0917 10.7379C44.6976 10.4695 44.3939 10.0806 44.1809 9.57138C43.9699 9.06214 43.8655 8.44957 43.8677 7.73366C43.8677 7.01989 43.9731 6.41158 44.1841 5.90874C44.3971 5.40589 44.7008 5.02344 45.0949 4.76136C45.4912 4.49716 45.9632 4.36506 46.5108 4.36506C47.0583 4.36506 47.5292 4.49716 47.9234 4.76136C48.3197 5.02557 48.6244 5.40909 48.8375 5.91193C49.0505 6.41264 49.156 7.01989 49.1539 7.73366C49.1539 8.4517 49.0473 9.06534 48.8343 9.57457C48.6233 10.0838 48.3208 10.4727 47.9266 10.7411C47.5324 11.0096 47.0605 11.1438 46.5108 11.1438ZM46.5108 9.99645C46.8858 9.99645 47.1851 9.80788 47.4088 9.43075C47.6326 9.05362 47.7434 8.48793 47.7412 7.73366C47.7412 7.23722 47.6901 6.82386 47.5878 6.49361C47.4877 6.16335 47.3449 5.91513 47.1596 5.74893C46.9763 5.58274 46.7601 5.49964 46.5108 5.49964C46.1379 5.49964 45.8396 5.68608 45.6159 6.05895C45.3922 6.43182 45.2792 6.99006 45.2771 7.73366C45.2771 8.23651 45.3272 8.65625 45.4273 8.9929C45.5296 9.32741 45.6734 9.57884 45.8588 9.74716C46.0441 9.91335 46.2615 9.99645 46.5108 9.99645ZM52.56 11.0895C52.0828 11.0895 51.6577 11.0075 51.2848 10.8434C50.9141 10.6772 50.6211 10.4492 50.4059 10.1594C50.1928 9.86754 50.0831 9.53089 50.0767 9.1495H51.4702C51.4787 9.3093 51.5309 9.44993 51.6268 9.57138C51.7248 9.6907 51.8548 9.78338 52.0167 9.84943C52.1786 9.91548 52.3608 9.94851 52.5632 9.94851C52.7742 9.94851 52.9606 9.91122 53.1225 9.83665C53.2845 9.76207 53.4112 9.65874 53.5029 9.52663C53.5945 9.39453 53.6403 9.24219 53.6403 9.0696C53.6403 8.89489 53.5913 8.74041 53.4933 8.60618C53.3974 8.46982 53.2589 8.36328 53.0778 8.28658C52.8988 8.20987 52.6857 8.17152 52.4386 8.17152H51.8281V7.15518H52.4386C52.6474 7.15518 52.8317 7.11896 52.9915 7.04652C53.1534 6.97408 53.2791 6.87393 53.3686 6.74609C53.4581 6.61612 53.5029 6.46484 53.5029 6.29226C53.5029 6.1282 53.4634 5.98438 53.3846 5.8608C53.3079 5.73509 53.1992 5.63707 53.0586 5.56676C52.9201 5.49645 52.7582 5.46129 52.5728 5.46129C52.3853 5.46129 52.2138 5.49538 52.0583 5.56357C51.9027 5.62962 51.7781 5.72443 51.6843 5.84801C51.5906 5.97159 51.5405 6.11648 51.5341 6.28267H50.2078C50.2142 5.90554 50.3218 5.57315 50.5306 5.28551C50.7394 4.99787 51.0206 4.77308 51.3743 4.61115C51.7301 4.44709 52.1318 4.36506 52.5792 4.36506C53.0309 4.36506 53.4262 4.44709 53.7649 4.61115C54.1037 4.77521 54.3669 4.9968 54.5544 5.27592C54.744 5.55291 54.8377 5.86399 54.8356 6.20916C54.8377 6.57564 54.7237 6.88139 54.4936 7.12642C54.2656 7.37145 53.9684 7.52699 53.6019 7.59304V7.64418C54.0835 7.70597 54.45 7.87322 54.7014 8.14595C54.9549 8.41655 55.0806 8.75533 55.0785 9.16229C55.0806 9.53516 54.973 9.86648 54.7557 10.1562C54.5405 10.446 54.2433 10.674 53.864 10.8402C53.4848 11.0064 53.0501 11.0895 52.56 11.0895ZM59.1446 7.18714V8.2674H56.1596V7.18714H59.1446ZM60.2872 11L63.0006 5.63068V5.58594H59.8398V4.45455H64.4325V5.60192L61.7158 11H60.2872ZM65.3809 11V10.0028L67.7108 7.84553C67.9089 7.65376 68.0751 7.48118 68.2094 7.32777C68.3457 7.17436 68.4491 7.02415 68.5194 6.87713C68.5897 6.72798 68.6248 6.56712 68.6248 6.39453C68.6248 6.20277 68.5812 6.03764 68.4938 5.89915C68.4064 5.75852 68.2871 5.65092 68.1359 5.57635C67.9846 5.49964 67.8131 5.46129 67.6213 5.46129C67.421 5.46129 67.2463 5.50178 67.0971 5.58274C66.948 5.66371 66.8329 5.77983 66.752 5.93111C66.671 6.08239 66.6305 6.26243 66.6305 6.47124H65.317C65.317 6.04297 65.4139 5.67116 65.6078 5.35582C65.8017 5.04048 66.0734 4.79652 66.4228 4.62393C66.7722 4.45135 67.1749 4.36506 67.6309 4.36506C68.0996 4.36506 68.5077 4.44815 68.855 4.61435C69.2044 4.77841 69.4761 5.00639 69.6699 5.2983C69.8638 5.5902 69.9608 5.92472 69.9608 6.30185C69.9608 6.54901 69.9118 6.79297 69.8138 7.03374C69.7179 7.2745 69.5464 7.5419 69.2992 7.83594C69.052 8.12784 68.7037 8.47834 68.2541 8.88743L67.2985 9.82386V9.86861H70.0471V11H65.3809ZM74.1212 7.18714V8.2674H71.1361V7.18714H74.1212ZM75.084 11V10.0028L77.4139 7.84553C77.6121 7.65376 77.7783 7.48118 77.9125 7.32777C78.0489 7.17436 78.1522 7.02415 78.2225 6.87713C78.2928 6.72798 78.328 6.56712 78.328 6.39453C78.328 6.20277 78.2843 6.03764 78.1969 5.89915C78.1096 5.75852 77.9903 5.65092 77.839 5.57635C77.6877 5.49964 77.5162 5.46129 77.3244 5.46129C77.1241 5.46129 76.9494 5.50178 76.8003 5.58274C76.6511 5.66371 76.5361 5.77983 76.4551 5.93111C76.3741 6.08239 76.3337 6.26243 76.3337 6.47124H75.0201C75.0201 6.04297 75.117 5.67116 75.3109 5.35582C75.5048 5.04048 75.7765 4.79652 76.1259 4.62393C76.4753 4.45135 76.878 4.36506 77.334 4.36506C77.8028 4.36506 78.2108 4.44815 78.5581 4.61435C78.9075 4.77841 79.1792 5.00639 79.3731 5.2983C79.567 5.5902 79.6639 5.92472 79.6639 6.30185C79.6639 6.54901 79.6149 6.79297 79.5169 7.03374C79.421 7.2745 79.2495 7.5419 79.0023 7.83594C78.7552 8.12784 78.4068 8.47834 77.9572 8.88743L77.0016 9.82386V9.86861H79.7502V11H75.084ZM80.753 11V10.0028L83.0829 7.84553C83.281 7.65376 83.4472 7.48118 83.5814 7.32777C83.7178 7.17436 83.8211 7.02415 83.8914 6.87713C83.9618 6.72798 83.9969 6.56712 83.9969 6.39453C83.9969 6.20277 83.9532 6.03764 83.8659 5.89915C83.7785 5.75852 83.6592 5.65092 83.5079 5.57635C83.3566 5.49964 83.1851 5.46129 82.9934 5.46129C82.7931 5.46129 82.6184 5.50178 82.4692 5.58274C82.3201 5.66371 82.205 5.77983 82.124 5.93111C82.0431 6.08239 82.0026 6.26243 82.0026 6.47124H80.689C80.689 6.04297 80.786 5.67116 80.9799 5.35582C81.1738 5.04048 81.4454 4.79652 81.7949 4.62393C82.1443 4.45135 82.547 4.36506 83.003 4.36506C83.4717 4.36506 83.8797 4.44815 84.227 4.61435C84.5765 4.77841 84.8481 5.00639 85.042 5.2983C85.2359 5.5902 85.3329 5.92472 85.3329 6.30185C85.3329 6.54901 85.2838 6.79297 85.1858 7.03374C85.09 7.2745 84.9184 7.5419 84.6713 7.83594C84.4241 8.12784 84.0758 8.47834 83.6262 8.88743L82.6706 9.82386V9.86861H85.4191V11H80.753Z" fill="white"/>
<path d="M4.19276 26.0895C3.70057 26.0895 3.26272 26.0096 2.87919 25.8498C2.4978 25.6879 2.19844 25.4673 1.98111 25.1882C1.76378 24.9091 1.65512 24.5927 1.65512 24.239C1.65512 23.9663 1.71691 23.7159 1.84049 23.4879C1.9662 23.2578 2.13665 23.0671 2.35185 22.9158C2.56705 22.7624 2.80782 22.6644 3.07415 22.6218V22.5771C2.72472 22.5067 2.44134 22.3374 2.22401 22.0689C2.00668 21.7983 1.89802 21.484 1.89802 21.1261C1.89802 20.7873 1.99709 20.4858 2.19525 20.2216C2.3934 19.9553 2.66506 19.7464 3.01023 19.5952C3.35753 19.4418 3.75171 19.3651 4.19276 19.3651C4.63381 19.3651 5.02692 19.4418 5.37209 19.5952C5.71939 19.7486 5.99212 19.9585 6.19027 20.2248C6.38843 20.489 6.48857 20.7894 6.4907 21.1261C6.48857 21.4862 6.37777 21.8004 6.15831 22.0689C5.93885 22.3374 5.6576 22.5067 5.31456 22.5771V22.6218C5.57664 22.6644 5.81421 22.7624 6.02728 22.9158C6.24248 23.0671 6.41293 23.2578 6.53864 23.4879C6.66648 23.7159 6.73147 23.9663 6.7336 24.239C6.73147 24.5927 6.62174 24.9091 6.40441 25.1882C6.18708 25.4673 5.88665 25.6879 5.50313 25.8498C5.12174 26.0096 4.68495 26.0895 4.19276 26.0895ZM4.19276 25.0732C4.41222 25.0732 4.60398 25.0337 4.76804 24.9549C4.93211 24.8739 5.05995 24.7631 5.15157 24.6225C5.24532 24.4798 5.29219 24.3157 5.29219 24.1303C5.29219 23.9407 5.24425 23.7734 5.14837 23.6286C5.05249 23.4815 4.92252 23.3665 4.75846 23.2834C4.59439 23.1982 4.40583 23.1555 4.19276 23.1555C3.98182 23.1555 3.79326 23.1982 3.62706 23.2834C3.46087 23.3665 3.32983 23.4815 3.23395 23.6286C3.1402 23.7734 3.09333 23.9407 3.09333 24.1303C3.09333 24.3157 3.13914 24.4798 3.23076 24.6225C3.32238 24.7631 3.45128 24.8739 3.61748 24.9549C3.78367 25.0337 3.97543 25.0732 4.19276 25.0732ZM4.19276 22.1488C4.376 22.1488 4.539 22.1115 4.68175 22.0369C4.82451 21.9624 4.93637 21.859 5.01733 21.7269C5.0983 21.5948 5.13878 21.4425 5.13878 21.2699C5.13878 21.0994 5.0983 20.9503 5.01733 20.8224C4.93637 20.6925 4.82557 20.5913 4.68495 20.5188C4.54432 20.4442 4.38026 20.407 4.19276 20.407C4.00739 20.407 3.84333 20.4442 3.70057 20.5188C3.55782 20.5913 3.44596 20.6925 3.36499 20.8224C3.28616 20.9503 3.24674 21.0994 3.24674 21.2699C3.24674 21.4425 3.28722 21.5948 3.36819 21.7269C3.44915 21.859 3.56101 21.9624 3.70377 22.0369C3.84652 22.1115 4.00952 22.1488 4.19276 22.1488ZM10.0974 22.7273C10.0974 21.9347 10.2029 21.2049 10.4138 20.538C10.6269 19.8711 10.9518 19.2532 11.3886 18.6843H12.6894C12.5232 18.8952 12.3687 19.1531 12.226 19.4577C12.0832 19.7603 11.9586 20.0927 11.852 20.4549C11.7455 20.8171 11.6624 21.1921 11.6027 21.5799C11.5431 21.9656 11.5133 22.348 11.5133 22.7273C11.5133 23.2322 11.5644 23.7425 11.6667 24.2582C11.7711 24.7717 11.9117 25.2489 12.0885 25.69C12.2675 26.131 12.4678 26.4922 12.6894 26.7734H11.3886C10.9518 26.2045 10.6269 25.5866 10.4138 24.9197C10.2029 24.2528 10.0974 23.522 10.0974 22.7273ZM13.3677 24.8494V23.7596L16.1003 19.4545H17.04V20.9631H16.4839L14.7612 23.6893V23.7404H18.6444V24.8494H13.3677ZM16.5094 26V24.517L16.535 24.0344V19.4545H17.8326V26H16.5094ZM21.9347 19.3651C22.2713 19.3651 22.5952 19.4215 22.9063 19.5344C23.2195 19.6474 23.4986 19.8274 23.7436 20.0746C23.9908 20.3217 24.1857 20.6499 24.3285 21.0589C24.4734 21.4659 24.5469 21.9656 24.549 22.5579C24.549 23.114 24.4862 23.6104 24.3605 24.0472C24.2369 24.4819 24.059 24.8516 23.8267 25.1562C23.5945 25.4609 23.3143 25.6932 22.9862 25.853C22.658 26.0107 22.2916 26.0895 21.8867 26.0895C21.45 26.0895 21.0643 26.0053 20.7298 25.837C20.3953 25.6665 20.1257 25.4354 19.9212 25.1435C19.7188 24.8494 19.5963 24.5192 19.5536 24.1527H20.9183C20.9716 24.3913 21.0835 24.5767 21.2539 24.7088C21.4244 24.8388 21.6353 24.9038 21.8867 24.9038C22.3129 24.9038 22.6367 24.7184 22.8583 24.3477C23.0799 23.9748 23.1918 23.4645 23.1939 22.8168H23.1492C23.0512 23.0085 22.9191 23.1737 22.7529 23.3121C22.5867 23.4485 22.396 23.554 22.1808 23.6286C21.9677 23.7031 21.7408 23.7404 21.5 23.7404C21.1144 23.7404 20.7703 23.6499 20.4677 23.4688C20.1652 23.2876 19.9265 23.0384 19.7518 22.7209C19.5771 22.4034 19.4897 22.0412 19.4897 21.6342C19.4876 21.1953 19.5888 20.8043 19.7933 20.4613C19.9979 20.1183 20.2834 19.8498 20.6499 19.6559C21.0185 19.4599 21.4468 19.3629 21.9347 19.3651ZM21.9443 20.4517C21.7291 20.4517 21.5373 20.5028 21.369 20.6051C21.2028 20.7074 21.0707 20.8448 20.9727 21.0174C20.8768 21.19 20.8299 21.3828 20.8321 21.5959C20.8321 21.8111 20.8789 22.005 20.9727 22.1776C21.0686 22.348 21.1985 22.4844 21.3626 22.5866C21.5288 22.6868 21.7184 22.7369 21.9315 22.7369C22.0913 22.7369 22.2394 22.707 22.3757 22.6474C22.5121 22.5877 22.6303 22.5057 22.7305 22.4013C22.8328 22.2947 22.9127 22.1722 22.9702 22.0337C23.0277 21.8952 23.0565 21.7482 23.0565 21.5927C23.0544 21.386 23.0053 21.1964 22.9095 21.0238C22.8136 20.8512 22.6815 20.7127 22.5132 20.6083C22.3448 20.5039 22.1552 20.4517 21.9443 20.4517ZM27.8761 19.3651C28.2127 19.3651 28.5366 19.4215 28.8477 19.5344C29.1609 19.6474 29.44 19.8274 29.685 20.0746C29.9322 20.3217 30.1272 20.6499 30.2699 21.0589C30.4148 21.4659 30.4883 21.9656 30.4904 22.5579C30.4904 23.114 30.4276 23.6104 30.3019 24.0472C30.1783 24.4819 30.0004 24.8516 29.7681 25.1562C29.5359 25.4609 29.2557 25.6932 28.9276 25.853C28.5995 26.0107 28.233 26.0895 27.8281 26.0895C27.3914 26.0895 27.0057 26.0053 26.6712 25.837C26.3367 25.6665 26.0671 25.4354 25.8626 25.1435C25.6602 24.8494 25.5377 24.5192 25.4951 24.1527H26.8598C26.913 24.3913 27.0249 24.5767 27.1953 24.7088C27.3658 24.8388 27.5767 24.9038 27.8281 24.9038C28.2543 24.9038 28.5781 24.7184 28.7997 24.3477C29.0213 23.9748 29.1332 23.4645 29.1353 22.8168H29.0906C28.9926 23.0085 28.8605 23.1737 28.6943 23.3121C28.5281 23.4485 28.3374 23.554 28.1222 23.6286C27.9091 23.7031 27.6822 23.7404 27.4414 23.7404C27.0558 23.7404 26.7117 23.6499 26.4091 23.4688C26.1066 23.2876 25.8679 23.0384 25.6932 22.7209C25.5185 22.4034 25.4311 22.0412 25.4311 21.6342C25.429 21.1953 25.5302 20.8043 25.7348 20.4613C25.9393 20.1183 26.2248 19.8498 26.5913 19.6559C26.9599 19.4599 27.3882 19.3629 27.8761 19.3651ZM27.8857 20.4517C27.6705 20.4517 27.4787 20.5028 27.3104 20.6051C27.1442 20.7074 27.0121 20.8448 26.9141 21.0174C26.8182 21.19 26.7713 21.3828 26.7735 21.5959C26.7735 21.8111 26.8203 22.005 26.9141 22.1776C27.01 22.348 27.1399 22.4844 27.304 22.5866C27.4702 22.6868 27.6598 22.7369 27.8729 22.7369C28.0327 22.7369 28.1808 22.707 28.3171 22.6474C28.4535 22.5877 28.5718 22.5057 28.6719 22.4013C28.7742 22.2947 28.8541 22.1722 28.9116 22.0337C28.9691 21.8952 28.9979 21.7482 28.9979 21.5927C28.9958 21.386 28.9468 21.1964 28.8509 21.0238C28.755 20.8512 28.6229 20.7127 28.4546 20.6083C28.2862 20.5039 28.0966 20.4517 27.8857 20.4517ZM33.7568 22.7273C33.7568 23.522 33.6502 24.2528 33.4372 24.9197C33.2262 25.5866 32.9024 26.2045 32.4656 26.7734H31.1648C31.331 26.5625 31.4855 26.3047 31.6282 26C31.771 25.6953 31.8956 25.3629 32.0022 25.0028C32.1087 24.6406 32.1918 24.2656 32.2514 23.8778C32.3111 23.4901 32.3409 23.1065 32.3409 22.7273C32.3409 22.2223 32.2887 21.7131 32.1843 21.1996C32.0821 20.6839 31.9414 20.2067 31.7625 19.7678C31.5856 19.3267 31.3864 18.9656 31.1648 18.6843H32.4656C32.9024 19.2532 33.2262 19.8711 33.4372 20.538C33.6502 21.2049 33.7568 21.9347 33.7568 22.7273ZM39.6343 26.0895C39.157 26.0895 38.7319 26.0075 38.359 25.8434C37.9883 25.6772 37.6953 25.4492 37.4801 25.1594C37.2671 24.8675 37.1573 24.5309 37.1509 24.1495H38.5444C38.5529 24.3093 38.6051 24.4499 38.701 24.5714C38.799 24.6907 38.929 24.7834 39.0909 24.8494C39.2529 24.9155 39.435 24.9485 39.6375 24.9485C39.8484 24.9485 40.0348 24.9112 40.1968 24.8366C40.3587 24.7621 40.4855 24.6587 40.5771 24.5266C40.6687 24.3945 40.7145 24.2422 40.7145 24.0696C40.7145 23.8949 40.6655 23.7404 40.5675 23.6062C40.4716 23.4698 40.3331 23.3633 40.152 23.2866C39.973 23.2099 39.76 23.1715 39.5128 23.1715H38.9024V22.1552H39.5128C39.7216 22.1552 39.9059 22.119 40.0657 22.0465C40.2277 21.9741 40.3534 21.8739 40.4428 21.7461C40.5323 21.6161 40.5771 21.4648 40.5771 21.2923C40.5771 21.1282 40.5377 20.9844 40.4588 20.8608C40.3821 20.7351 40.2735 20.6371 40.1328 20.5668C39.9943 20.4964 39.8324 20.4613 39.647 20.4613C39.4595 20.4613 39.288 20.4954 39.1325 20.5636C38.9769 20.6296 38.8523 20.7244 38.7585 20.848C38.6648 20.9716 38.6147 21.1165 38.6083 21.2827H37.282C37.2884 20.9055 37.396 20.5732 37.6048 20.2855C37.8136 19.9979 38.0948 19.7731 38.4485 19.6112C38.8044 19.4471 39.206 19.3651 39.6534 19.3651C40.1051 19.3651 40.5004 19.4471 40.8392 19.6112C41.1779 19.7752 41.4411 19.9968 41.6286 20.2759C41.8182 20.5529 41.912 20.864 41.9098 21.2092C41.912 21.5756 41.798 21.8814 41.5678 22.1264C41.3399 22.3714 41.0426 22.527 40.6762 22.593V22.6442C41.1577 22.706 41.5242 22.8732 41.7756 23.146C42.0291 23.4165 42.1549 23.7553 42.1527 24.1623C42.1549 24.5352 42.0473 24.8665 41.8299 25.1562C41.6147 25.446 41.3175 25.674 40.9382 25.8402C40.559 26.0064 40.1243 26.0895 39.6343 26.0895ZM45.5892 26.0895C45.0971 26.0895 44.6592 26.0096 44.2757 25.8498C43.8943 25.6879 43.5949 25.4673 43.3776 25.1882C43.1603 24.9091 43.0516 24.5927 43.0516 24.239C43.0516 23.9663 43.1134 23.7159 43.237 23.4879C43.3627 23.2578 43.5331 23.0671 43.7483 22.9158C43.9635 22.7624 44.2043 22.6644 44.4706 22.6218V22.5771C44.1212 22.5067 43.8378 22.3374 43.6205 22.0689C43.4032 21.7983 43.2945 21.484 43.2945 21.1261C43.2945 20.7873 43.3936 20.4858 43.5917 20.2216C43.7899 19.9553 44.0615 19.7464 44.4067 19.5952C44.754 19.4418 45.1482 19.3651 45.5892 19.3651C46.0303 19.3651 46.4234 19.4418 46.7686 19.5952C47.1159 19.7486 47.3886 19.9585 47.5868 20.2248C47.7849 20.489 47.8851 20.7894 47.8872 21.1261C47.8851 21.4862 47.7743 21.8004 47.5548 22.0689C47.3353 22.3374 47.0541 22.5067 46.711 22.5771V22.6218C46.9731 22.6644 47.2107 22.7624 47.4238 22.9158C47.639 23.0671 47.8094 23.2578 47.9351 23.4879C48.063 23.7159 48.128 23.9663 48.1301 24.239C48.128 24.5927 48.0182 24.9091 47.8009 25.1882C47.5836 25.4673 47.2831 25.6879 46.8996 25.8498C46.5182 26.0096 46.0814 26.0895 45.5892 26.0895ZM45.5892 25.0732C45.8087 25.0732 46.0005 25.0337 46.1645 24.9549C46.3286 24.8739 46.4564 24.7631 46.5481 24.6225C46.6418 24.4798 46.6887 24.3157 46.6887 24.1303C46.6887 23.9407 46.6407 23.7734 46.5449 23.6286C46.449 23.4815 46.319 23.3665 46.1549 23.2834C45.9909 23.1982 45.8023 23.1555 45.5892 23.1555C45.3783 23.1555 45.1897 23.1982 45.0235 23.2834C44.8574 23.3665 44.7263 23.4815 44.6304 23.6286C44.5367 23.7734 44.4898 23.9407 44.4898 24.1303C44.4898 24.3157 44.5356 24.4798 44.6272 24.6225C44.7189 24.7631 44.8478 24.8739 45.014 24.9549C45.1802 25.0337 45.3719 25.0732 45.5892 25.0732ZM45.5892 22.1488C45.7725 22.1488 45.9355 22.1115 46.0782 22.0369C46.221 21.9624 46.3329 21.859 46.4138 21.7269C46.4948 21.5948 46.5353 21.4425 46.5353 21.2699C46.5353 21.0994 46.4948 20.9503 46.4138 20.8224C46.3329 20.6925 46.2221 20.5913 46.0814 20.5188C45.9408 20.4442 45.7767 20.407 45.5892 20.407C45.4039 20.407 45.2398 20.4442 45.0971 20.5188C44.9543 20.5913 44.8424 20.6925 44.7615 20.8224C44.6826 20.9503 44.6432 21.0994 44.6432 21.2699C44.6432 21.4425 44.6837 21.5948 44.7647 21.7269C44.8456 21.859 44.9575 21.9624 45.1003 22.0369C45.243 22.1115 45.406 22.1488 45.5892 22.1488ZM51.6641 26.1438C51.1144 26.1417 50.6414 26.0064 50.2451 25.7379C49.8509 25.4695 49.5473 25.0806 49.3342 24.5714C49.1232 24.0621 49.0188 23.4496 49.021 22.7337C49.021 22.0199 49.1264 21.4116 49.3374 20.9087C49.5504 20.4059 49.8541 20.0234 50.2482 19.7614C50.6446 19.4972 51.1165 19.3651 51.6641 19.3651C52.2117 19.3651 52.6826 19.4972 53.0767 19.7614C53.473 20.0256 53.7777 20.4091 53.9908 20.9119C54.2039 21.4126 54.3093 22.0199 54.3072 22.7337C54.3072 23.4517 54.2007 24.0653 53.9876 24.5746C53.7767 25.0838 53.4741 25.4727 53.0799 25.7411C52.6857 26.0096 52.2138 26.1438 51.6641 26.1438ZM51.6641 24.9964C52.0391 24.9964 52.3384 24.8079 52.5622 24.4308C52.7859 24.0536 52.8967 23.4879 52.8946 22.7337C52.8946 22.2372 52.8434 21.8239 52.7411 21.4936C52.641 21.1634 52.4982 20.9151 52.3129 20.7489C52.1296 20.5827 51.9134 20.4996 51.6641 20.4996C51.2912 20.4996 50.9929 20.6861 50.7692 21.0589C50.5455 21.4318 50.4326 21.9901 50.4304 22.7337C50.4304 23.2365 50.4805 23.6562 50.5806 23.9929C50.6829 24.3274 50.8267 24.5788 51.0121 24.7472C51.1975 24.9134 51.4148 24.9964 51.6641 24.9964ZM58.3653 22.1871V23.2674H55.3803V22.1871H58.3653ZM59.5079 26L62.2213 20.6307V20.5859H59.0605V19.4545H63.6532V20.6019L60.9365 26H59.5079ZM65.0362 26L67.7497 20.6307V20.5859H64.5888V19.4545H69.1815V20.6019L66.4649 26H65.0362ZM73.2013 22.1871V23.2674H70.2162V22.1871H73.2013ZM76.7241 26.0895C76.2468 26.0895 75.8218 26.0075 75.4489 25.8434C75.0781 25.6772 74.7852 25.4492 74.57 25.1594C74.3569 24.8675 74.2472 24.5309 74.2408 24.1495H75.6343C75.6428 24.3093 75.695 24.4499 75.7909 24.5714C75.8889 24.6907 76.0188 24.7834 76.1808 24.8494C76.3427 24.9155 76.5249 24.9485 76.7273 24.9485C76.9382 24.9485 77.1247 24.9112 77.2866 24.8366C77.4485 24.7621 77.5753 24.6587 77.6669 24.5266C77.7585 24.3945 77.8044 24.2422 77.8044 24.0696C77.8044 23.8949 77.7553 23.7404 77.6573 23.6062C77.5615 23.4698 77.423 23.3633 77.2419 23.2866C77.0629 23.2099 76.8498 23.1715 76.6026 23.1715H75.9922V22.1552H76.6026C76.8115 22.1552 76.9958 22.119 77.1556 22.0465C77.3175 21.9741 77.4432 21.8739 77.5327 21.7461C77.6222 21.6161 77.6669 21.4648 77.6669 21.2923C77.6669 21.1282 77.6275 20.9844 77.5487 20.8608C77.472 20.7351 77.3633 20.6371 77.2227 20.5668C77.0842 20.4964 76.9223 20.4613 76.7369 20.4613C76.5494 20.4613 76.3779 20.4954 76.2223 20.5636C76.0668 20.6296 75.9421 20.7244 75.8484 20.848C75.7546 20.9716 75.7046 21.1165 75.6982 21.2827H74.3718C74.3782 20.9055 74.4858 20.5732 74.6946 20.2855C74.9034 19.9979 75.1847 19.7731 75.5384 19.6112C75.8942 19.4471 76.2958 19.3651 76.7433 19.3651C77.195 19.3651 77.5902 19.4471 77.929 19.6112C78.2678 19.7752 78.5309 19.9968 78.7184 20.2759C78.908 20.5529 79.0018 20.864 78.9997 21.2092C79.0018 21.5756 78.8878 21.8814 78.6577 22.1264C78.4297 22.3714 78.1325 22.527 77.766 22.593V22.6442C78.2475 22.706 78.614 22.8732 78.8654 23.146C79.119 23.4165 79.2447 23.7553 79.2426 24.1623C79.2447 24.5352 79.1371 24.8665 78.9198 25.1562C78.7046 25.446 78.4073 25.674 78.0281 25.8402C77.6488 26.0064 77.2142 26.0895 76.7241 26.0895ZM82.6567 26.0895C82.1794 26.0895 81.7544 26.0075 81.3815 25.8434C81.0108 25.6772 80.7178 25.4492 80.5026 25.1594C80.2895 24.8675 80.1798 24.5309 80.1734 24.1495H81.5669C81.5754 24.3093 81.6276 24.4499 81.7235 24.5714C81.8215 24.6907 81.9515 24.7834 82.1134 24.8494C82.2753 24.9155 82.4575 24.9485 82.6599 24.9485C82.8708 24.9485 83.0573 24.9112 83.2192 24.8366C83.3811 24.7621 83.5079 24.6587 83.5995 24.5266C83.6912 24.3945 83.737 24.2422 83.737 24.0696C83.737 23.8949 83.688 23.7404 83.59 23.6062C83.4941 23.4698 83.3556 23.3633 83.1745 23.2866C82.9955 23.2099 82.7824 23.1715 82.5353 23.1715H81.9248V22.1552H82.5353C82.7441 22.1552 82.9284 22.119 83.0882 22.0465C83.2501 21.9741 83.3758 21.8739 83.4653 21.7461C83.5548 21.6161 83.5995 21.4648 83.5995 21.2923C83.5995 21.1282 83.5601 20.9844 83.4813 20.8608C83.4046 20.7351 83.2959 20.6371 83.1553 20.5668C83.0168 20.4964 82.8549 20.4613 82.6695 20.4613C82.482 20.4613 82.3105 20.4954 82.1549 20.5636C81.9994 20.6296 81.8748 20.7244 81.781 20.848C81.6873 20.9716 81.6372 21.1165 81.6308 21.2827H80.3044C80.3108 20.9055 80.4184 20.5732 80.6272 20.2855C80.836 19.9979 81.1173 19.7731 81.471 19.6112C81.8268 19.4471 82.2284 19.3651 82.6759 19.3651C83.1276 19.3651 83.5228 19.4471 83.8616 19.6112C84.2004 19.7752 84.4635 19.9968 84.651 20.2759C84.8407 20.5529 84.9344 20.864 84.9323 21.2092C84.9344 21.5756 84.8204 21.8814 84.5903 22.1264C84.3623 22.3714 84.0651 22.527 83.6986 22.593V22.6442C84.1802 22.706 84.5466 22.8732 84.7981 23.146C85.0516 23.4165 85.1773 23.7553 85.1752 24.1623C85.1773 24.5352 85.0697 24.8665 84.8524 25.1562C84.6372 25.446 84.34 25.674 83.9607 25.8402C83.5814 26.0064 83.1468 26.0895 82.6567 26.0895Z" fill="white"/>
</svg>
